<svg id="emarp161eh5k1" xmlns="http://www.w3.org/2000/svg" xmlns:xlink="http://www.w3.org/1999/xlink" viewBox="0 0 1024 1024" shape-rendering="geometricPrecision" text-rendering="geometricPrecision">
    <style>
        <![CDATA[#emarp161eh5k3_tr {animation: emarp161eh5k3_tr__tr 3000ms linear 1 normal forwards}@keyframes emarp161eh5k3_tr__tr { 0% {transform: translate(503.999985px,503.224991px) rotate(0deg)} 43.333333% {transform: translate(503.999985px,503.224991px) rotate(0deg);animation-timing-function: cubic-bezier(0.215000,0.610000,0.355000,1)} 60% {transform: translate(503.999985px,503.224991px) rotate(180deg)} 100% {transform: translate(503.999985px,503.224991px) rotate(180deg)} }#emarp161eh5k4_to {animation: emarp161eh5k4_to__to 3000ms linear 1 normal forwards}@keyframes emarp161eh5k4_to__to { 0% {transform: translate(503.999985px,330.279999px)} 13.333333% {transform: translate(503.999985px,330.279999px);animation-timing-function: cubic-bezier(0.680000,-0.550000,0.265000,1.550000)} 43.333333% {transform: translate(503.999985px,226.816882px);animation-timing-function: cubic-bezier(0.785000,0.135000,0.150000,0.860000)} 100% {transform: translate(503.999985px,329.820163px)} }#emarp161eh5k5_to {animation: emarp161eh5k5_to__to 3000ms linear 1 normal forwards}@keyframes emarp161eh5k5_to__to { 0% {transform: translate(503.999985px,671.264999px)} 13.333333% {transform: translate(503.999985px,671.264999px);animation-timing-function: cubic-bezier(0.680000,-0.550000,0.265000,1.550000)} 43.333333% {transform: translate(503.999985px,774.728116px);animation-timing-function: cubic-bezier(0.785000,0.135000,0.150000,0.860000)} 100% {transform: translate(503.999985px,671.264999px)} }]]>
    </style>
    <g id="emarp161eh5k2">
        <g id="emarp161eh5k3_tr" transform="translate(503.999985,503.224991) rotate(0)">
            <polygon id="emarp161eh5k3" points="573.660000,668.750000 573.660000,337.700000 504,297.480000 434.340000,337.700000 434.340000,668.750000 504,708.970000" transform="translate(-503.999985,-503.224991)" fill="rgb(36,196,138)" stroke="none" stroke-width="1" />
        </g>
    </g>
    <g id="emarp161eh5k4_to" transform="translate(503.999985,330.279999)">
        <polygon id="emarp161eh5k4" points="325.980000,375.500000 504,272.710000 682.020000,375.500000 682.020000,452.210000 793.480000,516.560000 793.480000,439.840000 793.480000,311.150000 793.480000,310.680000 682.020000,246.330000 682.020000,246.800000 615.460000,208.360000 615.480000,208.350000 504.030000,144 504,144.020000 503.970000,144 392.520000,208.350000 392.540000,208.360000 325.980000,246.800000 325.980000,246.330000 214.520000,310.680000 214.520000,311.150000 214.520000,439.840000 214.520000,516.560000 325.980000,452.210000" transform="translate(-503.999985,-330.279999)" fill="rgb(36,196,138)" stroke="none" stroke-width="1" />
    </g>
    <g id="emarp161eh5k5_to" transform="translate(503.999985,671.264999)">
        <polygon id="emarp161eh5k5" points="392.520000,799.650000 503.970000,864 504,863.980000 504.030000,864 615.480000,799.650000 615.460000,799.640000 793.480000,696.850000 793.480000,696.050000 793.480000,672.050000 793.480000,568.160000 793.480000,543.350000 793.480000,542.880000 682.020000,478.530000 682.020000,479 682.020000,632.500000 504,735.290000 325.980000,632.500000 325.980000,479 325.980000,478.530000 214.520000,542.880000 214.520000,543.350000 214.520000,568.160000 214.520000,672.050000 214.520000,696.050000 214.520000,696.850000 392.540000,799.640000" transform="translate(-503.999985,-671.264999)" fill="rgb(60,60,60)" stroke="none" stroke-width="1" />
    </g>
</svg>